<svg width="220" height="38" viewBox="0 0 220 38" fill="none" xmlns="http://www.w3.org/2000/svg">
<path d="M48.1202 32.6373H46.4713C42.8661 32.537 39.4919 31.0475 36.9719 28.4418C34.8418 26.2396 33.5192 23.4462 33.1568 20.4372H19.8763L33.409 0H69.7302L48.1202 32.6373ZM26.1626 17.0506H36.4208V18.745C36.4208 21.5 37.472 24.1056 39.3817 26.0795C41.232 27.9916 43.6905 29.1098 46.325 29.2421L63.4439 3.38878H35.2085L26.1626 17.0506Z" fill="url(#paint0_linear_1_62)"/>
<path d="M53.4464 38H17.1231L22.3561 30.0978L22.7736 29.257L23.8164 29.2528H46.3187L62.1341 5.36487H75.0543L53.4464 38ZM23.4094 34.6134H51.647L68.7701 8.74938H63.9356L48.1202 32.6373H24.7171L23.4094 34.6134Z" fill="url(#paint1_linear_1_62)"/>
<path d="M23.8143 32.6415H13.8019C6.19094 32.6415 0 26.406 0 18.7429V17.0506H36.4208V18.745C36.4208 21.5 37.4721 24.1056 39.3817 26.0795C41.2871 28.0492 43.8389 29.1759 46.5645 29.2528L46.5179 32.6394H24.857L23.8143 32.6415ZM3.49923 20.4372C4.30674 25.4308 8.61985 29.2549 13.8019 29.2549H22.7736L23.8164 29.2506H37.8218C37.5293 28.9946 37.2453 28.7257 36.9719 28.4418C34.8418 26.2396 33.5193 23.4462 33.1568 20.4372H3.49923V20.4372Z" fill="url(#paint2_linear_1_62)"/>
<path d="M46.8592 32.6416H21.0929L22.7757 29.2549L23.8185 29.2506H46.5455H46.5709C46.6663 29.2528 46.7638 29.2549 46.8592 29.2549V32.6416V32.6416Z" fill="url(#paint3_linear_1_62)"/>
<path d="M85.5457 30.4457V8.00034H85.5753L97.1645 24.5217L95.6873 24.1931L107.217 8.00034H107.276V30.4435H103.847V15.83L104.055 17.5862L96.2786 28.6894H96.2193L88.2967 17.5862L88.888 15.9793V30.4457H85.5457V30.4457Z" fill="white"/>
<path d="M117.624 30.7722C116.185 30.7722 114.938 30.4841 113.883 29.91C112.827 29.3339 112.024 28.54 111.473 27.5285C110.92 26.517 110.644 25.3561 110.644 24.0458C110.644 22.7761 110.96 21.6344 111.59 20.6229C112.221 19.6114 113.073 18.8026 114.148 18.1966C115.222 17.5905 116.409 17.2896 117.711 17.2896C119.425 17.2896 120.839 17.7911 121.954 18.7919C123.066 19.7949 123.81 21.2076 124.186 23.0343L114.103 26.4572L113.364 24.5815L121.197 21.7539L120.546 22.1701C120.328 21.5555 119.974 21.0241 119.482 20.5781C118.989 20.1321 118.31 19.908 117.441 19.908C116.75 19.908 116.14 20.0766 115.608 20.4138C115.076 20.7509 114.656 21.2119 114.351 21.7987C114.046 22.3835 113.893 23.0642 113.893 23.8367C113.893 24.6903 114.061 25.4201 114.396 26.024C114.731 26.6301 115.184 27.0953 115.756 27.4239C116.329 27.7504 116.979 27.9148 117.708 27.9148C118.221 27.9148 118.713 27.8251 119.186 27.6459C119.658 27.4666 120.101 27.2297 120.517 26.931L122.024 29.4021C121.373 29.8183 120.659 30.1512 119.881 30.3987C119.105 30.6484 118.351 30.7722 117.624 30.7722Z" fill="white"/>
<path d="M129.567 17.853L129.891 21.4253L129.802 20.9195C130.118 20.1662 130.591 19.5196 131.22 18.984C131.852 18.4484 132.492 18.0322 133.142 17.7335C133.793 17.4347 134.334 17.2875 134.768 17.2875L134.56 20.6208C133.634 20.5418 132.82 20.7104 132.121 21.1265C131.421 21.5427 130.879 22.1039 130.495 22.8081C130.112 23.5123 129.919 24.2528 129.919 25.0253V30.4435H126.638V17.853H129.567V17.853Z" fill="white"/>
<path d="M137.195 13.2991C137.195 12.804 137.392 12.3857 137.786 12.0485C138.18 11.7114 138.615 11.5428 139.087 11.5428C139.56 11.5428 139.988 11.7114 140.374 12.0485C140.758 12.3857 140.95 12.8125 140.95 13.3289C140.95 13.824 140.758 14.2423 140.374 14.5795C139.99 14.9166 139.56 15.0852 139.087 15.0852C138.615 15.0852 138.18 14.9166 137.786 14.5795C137.39 14.2423 137.195 13.8155 137.195 13.2991ZM137.341 17.853H140.652V30.4436H137.341V17.853Z" fill="white"/>
<path d="M145.56 12.3174H148.871V17.853H152.122V20.4437H148.871V30.4457H145.56V20.4437H143.403V17.853H145.56V12.3174Z" fill="white"/>
<path d="M161.111 8.77499C163.298 8.77499 165.028 9.221 166.299 10.1151C167.571 11.0071 168.207 12.3772 168.207 14.2231C168.207 15.4544 167.921 16.5 167.35 17.3643C166.778 18.2286 165.994 18.8922 165 19.3596C164.004 19.8269 162.836 20.0702 161.497 20.0894L160.994 18.2734C162.571 18.2926 163.974 18.5465 165.208 19.0331C166.439 19.5196 167.425 20.2047 168.164 21.086C168.904 21.9695 169.273 23.0258 169.273 24.2571C169.273 25.3689 169.065 26.3164 168.652 27.0996C168.239 27.8828 167.685 28.523 166.997 29.0202C166.306 29.5174 165.523 29.878 164.646 30.1064C163.769 30.3347 162.876 30.4478 161.971 30.4478H155.231V8.77499H161.111ZM161.672 18.0024C162.696 18.0024 163.451 17.6993 163.934 17.0954C164.417 16.4894 164.659 15.7702 164.659 14.938C164.659 13.9862 164.354 13.2756 163.743 12.8104C163.133 12.3452 162.304 12.1104 161.259 12.1104H158.688V18.0045H161.672V18.0024ZM161.789 27.2298C162.518 27.2298 163.179 27.1209 163.771 26.9033C164.362 26.6856 164.835 26.357 165.191 25.9216C165.545 25.4863 165.723 24.9293 165.723 24.255C165.723 23.5017 165.515 22.9148 165.102 22.4987C164.688 22.0826 164.165 21.7838 163.535 21.6067C162.904 21.4274 162.245 21.3378 161.554 21.3378H158.686V27.2319H161.789V27.2298Z" fill="white"/>
<path d="M172.374 7.22784H175.684V30.4457H172.374V7.22784Z" fill="white"/>
<path d="M178.346 24.016C178.346 22.7462 178.647 21.6045 179.247 20.593C179.847 19.5815 180.68 18.777 181.746 18.1816C182.81 17.5862 184.033 17.2896 185.412 17.2896C186.792 17.2896 188 17.5884 189.035 18.1816C190.069 18.777 190.872 19.5815 191.444 20.593C192.017 21.6045 192.301 22.7356 192.301 23.9861C192.301 25.2771 192.015 26.4316 191.444 27.4538C190.872 28.476 190.069 29.2848 189.035 29.8802C188 30.4755 186.763 30.7722 185.323 30.7722C183.984 30.7722 182.786 30.499 181.731 29.9527C180.675 29.4064 179.849 28.6275 179.247 27.616C178.645 26.6045 178.346 25.4052 178.346 24.016ZM181.686 24.0458C181.686 24.8013 181.843 25.4756 182.159 26.0689C182.475 26.6642 182.903 27.1401 183.446 27.4986C183.988 27.855 184.603 28.0343 185.294 28.0343C186.023 28.0343 186.659 27.855 187.201 27.4986C187.744 27.1423 188.172 26.6642 188.488 26.0689C188.804 25.4735 188.96 24.7991 188.96 24.0458C188.96 23.2925 188.802 22.6161 188.488 22.0228C188.172 21.4274 187.744 20.9515 187.201 20.593C186.659 20.2367 186.033 20.0574 185.323 20.0574C184.633 20.0574 184.012 20.2367 183.46 20.593C182.909 20.9494 182.475 21.4317 182.159 22.0377C181.843 22.6417 181.686 23.3117 181.686 24.0458Z" fill="white"/>
<path d="M205.335 29.3147C204.763 29.7521 204.079 30.1042 203.282 30.371C202.483 30.6399 201.679 30.7722 200.872 30.7722C199.492 30.7722 198.276 30.499 197.22 29.9527C196.165 29.4064 195.353 28.6425 194.781 27.6608C194.208 26.6792 193.924 25.5033 193.924 24.1333C193.924 22.7633 194.234 21.5875 194.855 20.6058C195.476 19.6242 196.294 18.8645 197.309 18.3289C198.324 17.7932 199.392 17.5244 200.516 17.5244C201.58 17.5244 202.517 17.6695 203.324 17.9554C204.132 18.2435 204.823 18.6362 205.393 19.1312L203.797 21.3037C203.462 21.0454 203.042 20.8022 202.54 20.5738C202.038 20.3455 201.461 20.2324 200.81 20.2324C200.16 20.2324 199.564 20.4074 199.022 20.7531C198.479 21.1009 198.047 21.5619 197.72 22.138C197.396 22.7142 197.233 23.3779 197.233 24.1333C197.233 24.8482 197.4 25.5033 197.735 26.0987C198.07 26.6941 198.528 27.1657 199.111 27.5114C199.691 27.8593 200.367 28.0321 201.135 28.0321C201.648 28.0321 202.11 27.9574 202.525 27.8081C202.938 27.6587 203.313 27.456 203.648 27.1977L205.335 29.3147Z" fill="white"/>
<path d="M207.908 30.4457V7.22784H211.219V30.4457H207.908ZM210.185 26.6642L209.86 23.4483L217.457 17.5564L219.466 19.3425L210.185 26.6642ZM214.294 21.9609L220 30.4436H216.157L212.107 23.8943L214.294 21.9609Z" fill="white"/>
<defs>
<linearGradient id="paint0_linear_1_62" x1="29.5882" y1="-10.7905" x2="65.08" y2="37.5525" gradientUnits="userSpaceOnUse">
<stop offset="0.00122403" stop-color="#F39721"/>
<stop offset="1" stop-color="#EB1422"/>
</linearGradient>
<linearGradient id="paint1_linear_1_62" x1="25.0087" y1="-7.42844" x2="60.5006" y2="40.9146" gradientUnits="userSpaceOnUse">
<stop offset="0.00122403" stop-color="#F39721"/>
<stop offset="1" stop-color="#EB1422"/>
</linearGradient>
<linearGradient id="paint2_linear_1_62" x1="7.95465" y1="5.09209" x2="43.4465" y2="53.4351" gradientUnits="userSpaceOnUse">
<stop offset="0.00122403" stop-color="#F39721"/>
<stop offset="1" stop-color="#EB1422"/>
</linearGradient>
<linearGradient id="paint3_linear_1_62" x1="12.7188" y1="1.59443" x2="48.2107" y2="49.9375" gradientUnits="userSpaceOnUse">
<stop offset="0.00122403" stop-color="#F39721"/>
<stop offset="1" stop-color="#EB1422"/>
</linearGradient>
</defs>
</svg>
